<mxfile host="Electron" modified="2024-05-14T14:18:30.788Z" agent="Mozilla/5.0 (Windows NT 10.0; Win64; x64) AppleWebKit/537.36 (KHTML, like Gecko) draw.io/24.4.0 Chrome/120.0.6099.109 Electron/28.1.0 Safari/537.36" etag="ihLTeCHZd55xsLvZ1hsE" version="24.4.0" type="device" pages="2">
  <diagram name="Page-1" id="-ecFHrCXmSJ2wndP9TBN">
    <mxGraphModel dx="1036" dy="614" grid="1" gridSize="10" guides="1" tooltips="1" connect="1" arrows="1" fold="1" page="1" pageScale="1" pageWidth="850" pageHeight="1100" math="0" shadow="0">
      <root>
        <mxCell id="0" />
        <mxCell id="1" parent="0" />
        <mxCell id="GIwQ8sN8eOWJ0nkYlmHF-1" value="Personne" style="swimlane;fontStyle=0;childLayout=stackLayout;horizontal=1;startSize=26;fillColor=none;horizontalStack=0;resizeParent=1;resizeParentMax=0;resizeLast=0;collapsible=1;marginBottom=0;whiteSpace=wrap;html=1;" vertex="1" parent="1">
          <mxGeometry x="140" y="297" width="140" height="104" as="geometry" />
        </mxCell>
        <mxCell id="GIwQ8sN8eOWJ0nkYlmHF-2" value="id: int" style="text;strokeColor=none;fillColor=none;align=left;verticalAlign=top;spacingLeft=4;spacingRight=4;overflow=hidden;rotatable=0;points=[[0,0.5],[1,0.5]];portConstraint=eastwest;whiteSpace=wrap;html=1;" vertex="1" parent="GIwQ8sN8eOWJ0nkYlmHF-1">
          <mxGeometry y="26" width="140" height="26" as="geometry" />
        </mxCell>
        <mxCell id="GIwQ8sN8eOWJ0nkYlmHF-3" value="prenom:string" style="text;strokeColor=none;fillColor=none;align=left;verticalAlign=top;spacingLeft=4;spacingRight=4;overflow=hidden;rotatable=0;points=[[0,0.5],[1,0.5]];portConstraint=eastwest;whiteSpace=wrap;html=1;" vertex="1" parent="GIwQ8sN8eOWJ0nkYlmHF-1">
          <mxGeometry y="52" width="140" height="26" as="geometry" />
        </mxCell>
        <mxCell id="GIwQ8sN8eOWJ0nkYlmHF-6" value="nom:string" style="text;strokeColor=none;fillColor=none;align=left;verticalAlign=top;spacingLeft=4;spacingRight=4;overflow=hidden;rotatable=0;points=[[0,0.5],[1,0.5]];portConstraint=eastwest;whiteSpace=wrap;html=1;" vertex="1" parent="GIwQ8sN8eOWJ0nkYlmHF-1">
          <mxGeometry y="78" width="140" height="26" as="geometry" />
        </mxCell>
        <mxCell id="GIwQ8sN8eOWJ0nkYlmHF-9" value="Voiture" style="swimlane;fontStyle=0;childLayout=stackLayout;horizontal=1;startSize=26;fillColor=none;horizontalStack=0;resizeParent=1;resizeParentMax=0;resizeLast=0;collapsible=1;marginBottom=0;whiteSpace=wrap;html=1;" vertex="1" parent="1">
          <mxGeometry x="670" y="260" width="140" height="104" as="geometry" />
        </mxCell>
        <mxCell id="GIwQ8sN8eOWJ0nkYlmHF-10" value="id: int" style="text;strokeColor=none;fillColor=none;align=left;verticalAlign=top;spacingLeft=4;spacingRight=4;overflow=hidden;rotatable=0;points=[[0,0.5],[1,0.5]];portConstraint=eastwest;whiteSpace=wrap;html=1;" vertex="1" parent="GIwQ8sN8eOWJ0nkYlmHF-9">
          <mxGeometry y="26" width="140" height="26" as="geometry" />
        </mxCell>
        <mxCell id="GIwQ8sN8eOWJ0nkYlmHF-11" value="marque: string" style="text;strokeColor=none;fillColor=none;align=left;verticalAlign=top;spacingLeft=4;spacingRight=4;overflow=hidden;rotatable=0;points=[[0,0.5],[1,0.5]];portConstraint=eastwest;whiteSpace=wrap;html=1;" vertex="1" parent="GIwQ8sN8eOWJ0nkYlmHF-9">
          <mxGeometry y="52" width="140" height="26" as="geometry" />
        </mxCell>
        <mxCell id="GIwQ8sN8eOWJ0nkYlmHF-12" value="modele: string" style="text;strokeColor=none;fillColor=none;align=left;verticalAlign=top;spacingLeft=4;spacingRight=4;overflow=hidden;rotatable=0;points=[[0,0.5],[1,0.5]];portConstraint=eastwest;whiteSpace=wrap;html=1;" vertex="1" parent="GIwQ8sN8eOWJ0nkYlmHF-9">
          <mxGeometry y="78" width="140" height="26" as="geometry" />
        </mxCell>
        <mxCell id="GIwQ8sN8eOWJ0nkYlmHF-13" value="loue&lt;div&gt;&lt;br&gt;&lt;div&gt;dateDebut&lt;/div&gt;&lt;div&gt;dateFin&lt;/div&gt;&lt;/div&gt;" style="shape=lineEllipse;perimeter=ellipsePerimeter;whiteSpace=wrap;html=1;backgroundOutline=1;" vertex="1" parent="1">
          <mxGeometry x="290" y="160" width="150" height="78" as="geometry" />
        </mxCell>
        <mxCell id="GIwQ8sN8eOWJ0nkYlmHF-16" value="" style="endArrow=none;html=1;rounded=0;edgeStyle=orthogonalEdgeStyle;curved=1;" edge="1" parent="1" source="GIwQ8sN8eOWJ0nkYlmHF-13" target="GIwQ8sN8eOWJ0nkYlmHF-9">
          <mxGeometry width="50" height="50" relative="1" as="geometry">
            <mxPoint x="400" y="330" as="sourcePoint" />
            <mxPoint x="450" y="280" as="targetPoint" />
          </mxGeometry>
        </mxCell>
        <mxCell id="GIwQ8sN8eOWJ0nkYlmHF-43" value="0,n" style="edgeLabel;html=1;align=center;verticalAlign=middle;resizable=0;points=[];" vertex="1" connectable="0" parent="GIwQ8sN8eOWJ0nkYlmHF-16">
          <mxGeometry x="-0.3093" y="2" relative="1" as="geometry">
            <mxPoint as="offset" />
          </mxGeometry>
        </mxCell>
        <mxCell id="GIwQ8sN8eOWJ0nkYlmHF-18" value="" style="endArrow=none;html=1;rounded=0;endFill=0;edgeStyle=orthogonalEdgeStyle;curved=1;" edge="1" parent="1" source="GIwQ8sN8eOWJ0nkYlmHF-1" target="GIwQ8sN8eOWJ0nkYlmHF-13">
          <mxGeometry width="50" height="50" relative="1" as="geometry">
            <mxPoint x="340" y="384.0344827586207" as="sourcePoint" />
            <mxPoint x="455" y="270" as="targetPoint" />
            <Array as="points">
              <mxPoint x="250" y="220" />
            </Array>
          </mxGeometry>
        </mxCell>
        <mxCell id="GIwQ8sN8eOWJ0nkYlmHF-42" value="0,n" style="edgeLabel;html=1;align=center;verticalAlign=middle;resizable=0;points=[];" vertex="1" connectable="0" parent="GIwQ8sN8eOWJ0nkYlmHF-18">
          <mxGeometry x="0.1741" y="-17" relative="1" as="geometry">
            <mxPoint as="offset" />
          </mxGeometry>
        </mxCell>
        <mxCell id="GIwQ8sN8eOWJ0nkYlmHF-31" value="Degat" style="swimlane;fontStyle=0;childLayout=stackLayout;horizontal=1;startSize=26;fillColor=none;horizontalStack=0;resizeParent=1;resizeParentMax=0;resizeLast=0;collapsible=1;marginBottom=0;whiteSpace=wrap;html=1;" vertex="1" parent="1">
          <mxGeometry x="540" y="511" width="140" height="78" as="geometry" />
        </mxCell>
        <mxCell id="GIwQ8sN8eOWJ0nkYlmHF-32" value="id: int" style="text;strokeColor=none;fillColor=none;align=left;verticalAlign=top;spacingLeft=4;spacingRight=4;overflow=hidden;rotatable=0;points=[[0,0.5],[1,0.5]];portConstraint=eastwest;whiteSpace=wrap;html=1;" vertex="1" parent="GIwQ8sN8eOWJ0nkYlmHF-31">
          <mxGeometry y="26" width="140" height="26" as="geometry" />
        </mxCell>
        <mxCell id="GIwQ8sN8eOWJ0nkYlmHF-33" value="description: string" style="text;strokeColor=none;fillColor=none;align=left;verticalAlign=top;spacingLeft=4;spacingRight=4;overflow=hidden;rotatable=0;points=[[0,0.5],[1,0.5]];portConstraint=eastwest;whiteSpace=wrap;html=1;" vertex="1" parent="GIwQ8sN8eOWJ0nkYlmHF-31">
          <mxGeometry y="52" width="140" height="26" as="geometry" />
        </mxCell>
        <mxCell id="GIwQ8sN8eOWJ0nkYlmHF-35" value="subit&amp;nbsp;&lt;div&gt;&lt;br&gt;&lt;/div&gt;&lt;div&gt;&lt;br&gt;&lt;/div&gt;" style="shape=lineEllipse;perimeter=ellipsePerimeter;whiteSpace=wrap;html=1;backgroundOutline=1;" vertex="1" parent="1">
          <mxGeometry x="550" y="380" width="150" height="78" as="geometry" />
        </mxCell>
        <mxCell id="GIwQ8sN8eOWJ0nkYlmHF-36" value="&lt;div&gt;note&lt;/div&gt;&lt;div&gt;&lt;br&gt;&lt;div&gt;&lt;br&gt;&lt;/div&gt;&lt;/div&gt;" style="shape=lineEllipse;perimeter=ellipsePerimeter;whiteSpace=wrap;html=1;backgroundOutline=1;" vertex="1" parent="1">
          <mxGeometry x="220" y="480" width="150" height="78" as="geometry" />
        </mxCell>
        <mxCell id="GIwQ8sN8eOWJ0nkYlmHF-37" value="" style="endArrow=none;html=1;rounded=0;endFill=0;edgeStyle=orthogonalEdgeStyle;curved=1;" edge="1" parent="1" source="GIwQ8sN8eOWJ0nkYlmHF-36" target="GIwQ8sN8eOWJ0nkYlmHF-1">
          <mxGeometry width="50" height="50" relative="1" as="geometry">
            <mxPoint x="205" y="659.97" as="sourcePoint" />
            <mxPoint x="100" y="439.97" as="targetPoint" />
          </mxGeometry>
        </mxCell>
        <mxCell id="GIwQ8sN8eOWJ0nkYlmHF-48" value="0,n" style="edgeLabel;html=1;align=center;verticalAlign=middle;resizable=0;points=[];" vertex="1" connectable="0" parent="GIwQ8sN8eOWJ0nkYlmHF-37">
          <mxGeometry x="0.1936" y="-2" relative="1" as="geometry">
            <mxPoint as="offset" />
          </mxGeometry>
        </mxCell>
        <mxCell id="GIwQ8sN8eOWJ0nkYlmHF-38" value="" style="endArrow=none;html=1;rounded=0;endFill=0;edgeStyle=orthogonalEdgeStyle;curved=1;" edge="1" parent="1" source="GIwQ8sN8eOWJ0nkYlmHF-31" target="GIwQ8sN8eOWJ0nkYlmHF-36">
          <mxGeometry width="50" height="50" relative="1" as="geometry">
            <mxPoint x="305" y="490" as="sourcePoint" />
            <mxPoint x="200" y="374" as="targetPoint" />
          </mxGeometry>
        </mxCell>
        <mxCell id="GIwQ8sN8eOWJ0nkYlmHF-49" value="1,1" style="edgeLabel;html=1;align=center;verticalAlign=middle;resizable=0;points=[];" vertex="1" connectable="0" parent="GIwQ8sN8eOWJ0nkYlmHF-38">
          <mxGeometry x="0.3968" y="-2" relative="1" as="geometry">
            <mxPoint as="offset" />
          </mxGeometry>
        </mxCell>
        <mxCell id="GIwQ8sN8eOWJ0nkYlmHF-39" value="" style="endArrow=none;html=1;rounded=0;edgeStyle=orthogonalEdgeStyle;curved=1;" edge="1" parent="1" source="GIwQ8sN8eOWJ0nkYlmHF-35" target="GIwQ8sN8eOWJ0nkYlmHF-9">
          <mxGeometry width="50" height="50" relative="1" as="geometry">
            <mxPoint x="500" y="209" as="sourcePoint" />
            <mxPoint x="580" y="209" as="targetPoint" />
          </mxGeometry>
        </mxCell>
        <mxCell id="GIwQ8sN8eOWJ0nkYlmHF-44" value="0,n" style="edgeLabel;html=1;align=center;verticalAlign=middle;resizable=0;points=[];" vertex="1" connectable="0" parent="GIwQ8sN8eOWJ0nkYlmHF-39">
          <mxGeometry x="0.0785" y="-1" relative="1" as="geometry">
            <mxPoint as="offset" />
          </mxGeometry>
        </mxCell>
        <mxCell id="GIwQ8sN8eOWJ0nkYlmHF-40" value="" style="endArrow=none;html=1;rounded=0;edgeStyle=orthogonalEdgeStyle;curved=1;" edge="1" parent="1" source="GIwQ8sN8eOWJ0nkYlmHF-31" target="GIwQ8sN8eOWJ0nkYlmHF-35">
          <mxGeometry width="50" height="50" relative="1" as="geometry">
            <mxPoint x="635" y="333" as="sourcePoint" />
            <mxPoint x="650" y="261" as="targetPoint" />
          </mxGeometry>
        </mxCell>
        <mxCell id="GIwQ8sN8eOWJ0nkYlmHF-45" value="1,1" style="edgeLabel;html=1;align=center;verticalAlign=middle;resizable=0;points=[];" vertex="1" connectable="0" parent="GIwQ8sN8eOWJ0nkYlmHF-40">
          <mxGeometry x="-0.0039" relative="1" as="geometry">
            <mxPoint as="offset" />
          </mxGeometry>
        </mxCell>
        <mxCell id="GIwQ8sN8eOWJ0nkYlmHF-50" value="Personne" style="swimlane;fontStyle=0;childLayout=stackLayout;horizontal=1;startSize=26;fillColor=none;horizontalStack=0;resizeParent=1;resizeParentMax=0;resizeLast=0;collapsible=1;marginBottom=0;whiteSpace=wrap;html=1;" vertex="1" parent="1">
          <mxGeometry x="140" y="783" width="140" height="104" as="geometry" />
        </mxCell>
        <mxCell id="GIwQ8sN8eOWJ0nkYlmHF-51" value="id: int" style="text;strokeColor=none;fillColor=none;align=left;verticalAlign=top;spacingLeft=4;spacingRight=4;overflow=hidden;rotatable=0;points=[[0,0.5],[1,0.5]];portConstraint=eastwest;whiteSpace=wrap;html=1;" vertex="1" parent="GIwQ8sN8eOWJ0nkYlmHF-50">
          <mxGeometry y="26" width="140" height="26" as="geometry" />
        </mxCell>
        <mxCell id="GIwQ8sN8eOWJ0nkYlmHF-52" value="prenom:string" style="text;strokeColor=none;fillColor=none;align=left;verticalAlign=top;spacingLeft=4;spacingRight=4;overflow=hidden;rotatable=0;points=[[0,0.5],[1,0.5]];portConstraint=eastwest;whiteSpace=wrap;html=1;" vertex="1" parent="GIwQ8sN8eOWJ0nkYlmHF-50">
          <mxGeometry y="52" width="140" height="26" as="geometry" />
        </mxCell>
        <mxCell id="GIwQ8sN8eOWJ0nkYlmHF-53" value="nom:string" style="text;strokeColor=none;fillColor=none;align=left;verticalAlign=top;spacingLeft=4;spacingRight=4;overflow=hidden;rotatable=0;points=[[0,0.5],[1,0.5]];portConstraint=eastwest;whiteSpace=wrap;html=1;" vertex="1" parent="GIwQ8sN8eOWJ0nkYlmHF-50">
          <mxGeometry y="78" width="140" height="26" as="geometry" />
        </mxCell>
        <mxCell id="GIwQ8sN8eOWJ0nkYlmHF-54" value="Voiture" style="swimlane;fontStyle=0;childLayout=stackLayout;horizontal=1;startSize=26;fillColor=none;horizontalStack=0;resizeParent=1;resizeParentMax=0;resizeLast=0;collapsible=1;marginBottom=0;whiteSpace=wrap;html=1;" vertex="1" parent="1">
          <mxGeometry x="570" y="620" width="140" height="104" as="geometry" />
        </mxCell>
        <mxCell id="GIwQ8sN8eOWJ0nkYlmHF-55" value="id: int" style="text;strokeColor=none;fillColor=none;align=left;verticalAlign=top;spacingLeft=4;spacingRight=4;overflow=hidden;rotatable=0;points=[[0,0.5],[1,0.5]];portConstraint=eastwest;whiteSpace=wrap;html=1;" vertex="1" parent="GIwQ8sN8eOWJ0nkYlmHF-54">
          <mxGeometry y="26" width="140" height="26" as="geometry" />
        </mxCell>
        <mxCell id="GIwQ8sN8eOWJ0nkYlmHF-56" value="marque: string" style="text;strokeColor=none;fillColor=none;align=left;verticalAlign=top;spacingLeft=4;spacingRight=4;overflow=hidden;rotatable=0;points=[[0,0.5],[1,0.5]];portConstraint=eastwest;whiteSpace=wrap;html=1;" vertex="1" parent="GIwQ8sN8eOWJ0nkYlmHF-54">
          <mxGeometry y="52" width="140" height="26" as="geometry" />
        </mxCell>
        <mxCell id="GIwQ8sN8eOWJ0nkYlmHF-57" value="modele: string" style="text;strokeColor=none;fillColor=none;align=left;verticalAlign=top;spacingLeft=4;spacingRight=4;overflow=hidden;rotatable=0;points=[[0,0.5],[1,0.5]];portConstraint=eastwest;whiteSpace=wrap;html=1;" vertex="1" parent="GIwQ8sN8eOWJ0nkYlmHF-54">
          <mxGeometry y="78" width="140" height="26" as="geometry" />
        </mxCell>
        <mxCell id="GIwQ8sN8eOWJ0nkYlmHF-58" value="loue&lt;div&gt;&lt;br&gt;&lt;div&gt;dateDebut&lt;/div&gt;&lt;div&gt;dateFin&lt;/div&gt;&lt;/div&gt;" style="shape=lineEllipse;perimeter=ellipsePerimeter;whiteSpace=wrap;html=1;backgroundOutline=1;" vertex="1" parent="1">
          <mxGeometry x="290" y="633" width="150" height="78" as="geometry" />
        </mxCell>
        <mxCell id="GIwQ8sN8eOWJ0nkYlmHF-59" value="" style="endArrow=none;html=1;rounded=0;edgeStyle=orthogonalEdgeStyle;curved=1;" edge="1" parent="1" source="GIwQ8sN8eOWJ0nkYlmHF-58" target="GIwQ8sN8eOWJ0nkYlmHF-54">
          <mxGeometry width="50" height="50" relative="1" as="geometry">
            <mxPoint x="400" y="803" as="sourcePoint" />
            <mxPoint x="450" y="753" as="targetPoint" />
          </mxGeometry>
        </mxCell>
        <mxCell id="GIwQ8sN8eOWJ0nkYlmHF-60" value="0,n" style="edgeLabel;html=1;align=center;verticalAlign=middle;resizable=0;points=[];" vertex="1" connectable="0" parent="GIwQ8sN8eOWJ0nkYlmHF-59">
          <mxGeometry x="-0.3093" y="2" relative="1" as="geometry">
            <mxPoint as="offset" />
          </mxGeometry>
        </mxCell>
        <mxCell id="GIwQ8sN8eOWJ0nkYlmHF-61" value="" style="endArrow=none;html=1;rounded=0;endFill=0;edgeStyle=orthogonalEdgeStyle;curved=1;" edge="1" parent="1" source="GIwQ8sN8eOWJ0nkYlmHF-50" target="GIwQ8sN8eOWJ0nkYlmHF-58">
          <mxGeometry width="50" height="50" relative="1" as="geometry">
            <mxPoint x="340" y="857.0344827586207" as="sourcePoint" />
            <mxPoint x="455" y="743" as="targetPoint" />
            <Array as="points">
              <mxPoint x="250" y="693" />
            </Array>
          </mxGeometry>
        </mxCell>
        <mxCell id="GIwQ8sN8eOWJ0nkYlmHF-62" value="0,n" style="edgeLabel;html=1;align=center;verticalAlign=middle;resizable=0;points=[];" vertex="1" connectable="0" parent="GIwQ8sN8eOWJ0nkYlmHF-61">
          <mxGeometry x="0.1741" y="-17" relative="1" as="geometry">
            <mxPoint as="offset" />
          </mxGeometry>
        </mxCell>
        <mxCell id="GIwQ8sN8eOWJ0nkYlmHF-63" value="&lt;div&gt;note de degats&lt;/div&gt;&lt;div&gt;&lt;br&gt;&lt;/div&gt;&lt;div&gt;description&lt;/div&gt;" style="shape=lineEllipse;perimeter=ellipsePerimeter;whiteSpace=wrap;html=1;backgroundOutline=1;" vertex="1" parent="1">
          <mxGeometry x="420" y="830" width="150" height="78" as="geometry" />
        </mxCell>
        <mxCell id="GIwQ8sN8eOWJ0nkYlmHF-64" value="" style="endArrow=none;html=1;rounded=0;edgeStyle=orthogonalEdgeStyle;curved=1;" edge="1" parent="1" source="GIwQ8sN8eOWJ0nkYlmHF-63" target="GIwQ8sN8eOWJ0nkYlmHF-54">
          <mxGeometry width="50" height="50" relative="1" as="geometry">
            <mxPoint x="500" y="682" as="sourcePoint" />
            <mxPoint x="580" y="682" as="targetPoint" />
          </mxGeometry>
        </mxCell>
        <mxCell id="GIwQ8sN8eOWJ0nkYlmHF-65" value="0,n" style="edgeLabel;html=1;align=center;verticalAlign=middle;resizable=0;points=[];" vertex="1" connectable="0" parent="GIwQ8sN8eOWJ0nkYlmHF-64">
          <mxGeometry x="0.0785" y="-1" relative="1" as="geometry">
            <mxPoint as="offset" />
          </mxGeometry>
        </mxCell>
        <mxCell id="GIwQ8sN8eOWJ0nkYlmHF-66" value="" style="endArrow=none;html=1;rounded=0;endFill=0;edgeStyle=orthogonalEdgeStyle;curved=1;" edge="1" parent="1" source="GIwQ8sN8eOWJ0nkYlmHF-50" target="GIwQ8sN8eOWJ0nkYlmHF-63">
          <mxGeometry width="50" height="50" relative="1" as="geometry">
            <mxPoint x="260" y="780" as="sourcePoint" />
            <mxPoint x="312" y="703" as="targetPoint" />
            <Array as="points">
              <mxPoint x="450" y="820" />
              <mxPoint x="450" y="820" />
            </Array>
          </mxGeometry>
        </mxCell>
        <mxCell id="GIwQ8sN8eOWJ0nkYlmHF-67" value="0,n" style="edgeLabel;html=1;align=center;verticalAlign=middle;resizable=0;points=[];" vertex="1" connectable="0" parent="GIwQ8sN8eOWJ0nkYlmHF-66">
          <mxGeometry x="0.1741" y="-17" relative="1" as="geometry">
            <mxPoint as="offset" />
          </mxGeometry>
        </mxCell>
      </root>
    </mxGraphModel>
  </diagram>
  <diagram id="9fF_vYRgUwVmc-GQtnRW" name="ex01">
    <mxGraphModel dx="863" dy="512" grid="1" gridSize="10" guides="1" tooltips="1" connect="1" arrows="1" fold="1" page="1" pageScale="1" pageWidth="850" pageHeight="1100" math="0" shadow="0">
      <root>
        <mxCell id="0" />
        <mxCell id="1" parent="0" />
        <mxCell id="sIbLqK6M3uWZsXWhjb3E-1" value="Client" style="swimlane;fontStyle=0;childLayout=stackLayout;horizontal=1;startSize=26;fillColor=none;horizontalStack=0;resizeParent=1;resizeParentMax=0;resizeLast=0;collapsible=1;marginBottom=0;whiteSpace=wrap;html=1;" vertex="1" parent="1">
          <mxGeometry x="40" y="166" width="140" height="104" as="geometry" />
        </mxCell>
        <mxCell id="sIbLqK6M3uWZsXWhjb3E-2" value="id: int" style="text;strokeColor=none;fillColor=none;align=left;verticalAlign=top;spacingLeft=4;spacingRight=4;overflow=hidden;rotatable=0;points=[[0,0.5],[1,0.5]];portConstraint=eastwest;whiteSpace=wrap;html=1;" vertex="1" parent="sIbLqK6M3uWZsXWhjb3E-1">
          <mxGeometry y="26" width="140" height="26" as="geometry" />
        </mxCell>
        <mxCell id="sIbLqK6M3uWZsXWhjb3E-3" value="prenom:string" style="text;strokeColor=none;fillColor=none;align=left;verticalAlign=top;spacingLeft=4;spacingRight=4;overflow=hidden;rotatable=0;points=[[0,0.5],[1,0.5]];portConstraint=eastwest;whiteSpace=wrap;html=1;" vertex="1" parent="sIbLqK6M3uWZsXWhjb3E-1">
          <mxGeometry y="52" width="140" height="26" as="geometry" />
        </mxCell>
        <mxCell id="sIbLqK6M3uWZsXWhjb3E-4" value="nom:string" style="text;strokeColor=none;fillColor=none;align=left;verticalAlign=top;spacingLeft=4;spacingRight=4;overflow=hidden;rotatable=0;points=[[0,0.5],[1,0.5]];portConstraint=eastwest;whiteSpace=wrap;html=1;" vertex="1" parent="sIbLqK6M3uWZsXWhjb3E-1">
          <mxGeometry y="78" width="140" height="26" as="geometry" />
        </mxCell>
        <mxCell id="sIbLqK6M3uWZsXWhjb3E-5" value="CompteBancaire" style="swimlane;fontStyle=0;childLayout=stackLayout;horizontal=1;startSize=26;fillColor=none;horizontalStack=0;resizeParent=1;resizeParentMax=0;resizeLast=0;collapsible=1;marginBottom=0;whiteSpace=wrap;html=1;" vertex="1" parent="1">
          <mxGeometry x="600" y="140" width="140" height="130" as="geometry" />
        </mxCell>
        <mxCell id="sIbLqK6M3uWZsXWhjb3E-6" value="id: int" style="text;strokeColor=none;fillColor=none;align=left;verticalAlign=top;spacingLeft=4;spacingRight=4;overflow=hidden;rotatable=0;points=[[0,0.5],[1,0.5]];portConstraint=eastwest;whiteSpace=wrap;html=1;" vertex="1" parent="sIbLqK6M3uWZsXWhjb3E-5">
          <mxGeometry y="26" width="140" height="26" as="geometry" />
        </mxCell>
        <mxCell id="sIbLqK6M3uWZsXWhjb3E-7" value="type: string" style="text;strokeColor=none;fillColor=none;align=left;verticalAlign=top;spacingLeft=4;spacingRight=4;overflow=hidden;rotatable=0;points=[[0,0.5],[1,0.5]];portConstraint=eastwest;whiteSpace=wrap;html=1;" vertex="1" parent="sIbLqK6M3uWZsXWhjb3E-5">
          <mxGeometry y="52" width="140" height="26" as="geometry" />
        </mxCell>
        <mxCell id="sIbLqK6M3uWZsXWhjb3E-8" value="numero: string" style="text;strokeColor=none;fillColor=none;align=left;verticalAlign=top;spacingLeft=4;spacingRight=4;overflow=hidden;rotatable=0;points=[[0,0.5],[1,0.5]];portConstraint=eastwest;whiteSpace=wrap;html=1;" vertex="1" parent="sIbLqK6M3uWZsXWhjb3E-5">
          <mxGeometry y="78" width="140" height="26" as="geometry" />
        </mxCell>
        <mxCell id="sIbLqK6M3uWZsXWhjb3E-17" value="solde: float" style="text;strokeColor=none;fillColor=none;align=left;verticalAlign=top;spacingLeft=4;spacingRight=4;overflow=hidden;rotatable=0;points=[[0,0.5],[1,0.5]];portConstraint=eastwest;whiteSpace=wrap;html=1;" vertex="1" parent="sIbLqK6M3uWZsXWhjb3E-5">
          <mxGeometry y="104" width="140" height="26" as="geometry" />
        </mxCell>
        <mxCell id="sIbLqK6M3uWZsXWhjb3E-9" value="possede&lt;div&gt;&lt;br&gt;&lt;/div&gt;&lt;div&gt;&lt;br&gt;&lt;/div&gt;" style="shape=lineEllipse;perimeter=ellipsePerimeter;whiteSpace=wrap;html=1;backgroundOutline=1;" vertex="1" parent="1">
          <mxGeometry x="290" y="156" width="150" height="78" as="geometry" />
        </mxCell>
        <mxCell id="sIbLqK6M3uWZsXWhjb3E-10" value="" style="endArrow=none;html=1;rounded=0;edgeStyle=orthogonalEdgeStyle;curved=1;" edge="1" parent="1" source="sIbLqK6M3uWZsXWhjb3E-9" target="sIbLqK6M3uWZsXWhjb3E-5">
          <mxGeometry width="50" height="50" relative="1" as="geometry">
            <mxPoint x="400" y="326" as="sourcePoint" />
            <mxPoint x="450" y="276" as="targetPoint" />
          </mxGeometry>
        </mxCell>
        <mxCell id="sIbLqK6M3uWZsXWhjb3E-19" value="1,n" style="edgeLabel;html=1;align=center;verticalAlign=middle;resizable=0;points=[];" vertex="1" connectable="0" parent="sIbLqK6M3uWZsXWhjb3E-10">
          <mxGeometry x="0.7995" y="-2" relative="1" as="geometry">
            <mxPoint as="offset" />
          </mxGeometry>
        </mxCell>
        <mxCell id="sIbLqK6M3uWZsXWhjb3E-12" value="" style="endArrow=none;html=1;rounded=0;endFill=0;edgeStyle=orthogonalEdgeStyle;curved=1;" edge="1" parent="1" source="sIbLqK6M3uWZsXWhjb3E-1" target="sIbLqK6M3uWZsXWhjb3E-9">
          <mxGeometry width="50" height="50" relative="1" as="geometry">
            <mxPoint x="340" y="380.0344827586207" as="sourcePoint" />
            <mxPoint x="455" y="266" as="targetPoint" />
            <Array as="points">
              <mxPoint x="250" y="216" />
            </Array>
          </mxGeometry>
        </mxCell>
        <mxCell id="sIbLqK6M3uWZsXWhjb3E-18" value="1,n" style="edgeLabel;html=1;align=center;verticalAlign=middle;resizable=0;points=[];" vertex="1" connectable="0" parent="sIbLqK6M3uWZsXWhjb3E-12">
          <mxGeometry x="-0.2214" y="4" relative="1" as="geometry">
            <mxPoint as="offset" />
          </mxGeometry>
        </mxCell>
        <mxCell id="sIbLqK6M3uWZsXWhjb3E-20" value="MCD: un compte peut appartenir à plusieurs clients" style="text;html=1;align=center;verticalAlign=middle;whiteSpace=wrap;rounded=0;fillColor=#f8cecc;strokeColor=#b85450;" vertex="1" parent="1">
          <mxGeometry x="210" y="40" width="160" height="80" as="geometry" />
        </mxCell>
        <mxCell id="sIbLqK6M3uWZsXWhjb3E-21" value="MLD" style="text;html=1;align=center;verticalAlign=middle;whiteSpace=wrap;rounded=0;fillColor=#f8cecc;strokeColor=#b85450;" vertex="1" parent="1">
          <mxGeometry x="210" y="340" width="60" height="30" as="geometry" />
        </mxCell>
        <mxCell id="sIbLqK6M3uWZsXWhjb3E-36" value="Client" style="swimlane;fontStyle=0;childLayout=stackLayout;horizontal=1;startSize=26;fillColor=none;horizontalStack=0;resizeParent=1;resizeParentMax=0;resizeLast=0;collapsible=1;marginBottom=0;whiteSpace=wrap;html=1;" vertex="1" parent="1">
          <mxGeometry x="50" y="420" width="140" height="104" as="geometry" />
        </mxCell>
        <mxCell id="sIbLqK6M3uWZsXWhjb3E-37" value="id: int" style="text;strokeColor=#b85450;fillColor=#f8cecc;align=left;verticalAlign=top;spacingLeft=4;spacingRight=4;overflow=hidden;rotatable=0;points=[[0,0.5],[1,0.5]];portConstraint=eastwest;whiteSpace=wrap;html=1;" vertex="1" parent="sIbLqK6M3uWZsXWhjb3E-36">
          <mxGeometry y="26" width="140" height="26" as="geometry" />
        </mxCell>
        <mxCell id="sIbLqK6M3uWZsXWhjb3E-38" value="prenom:string" style="text;strokeColor=none;fillColor=none;align=left;verticalAlign=top;spacingLeft=4;spacingRight=4;overflow=hidden;rotatable=0;points=[[0,0.5],[1,0.5]];portConstraint=eastwest;whiteSpace=wrap;html=1;" vertex="1" parent="sIbLqK6M3uWZsXWhjb3E-36">
          <mxGeometry y="52" width="140" height="26" as="geometry" />
        </mxCell>
        <mxCell id="sIbLqK6M3uWZsXWhjb3E-39" value="nom:string" style="text;strokeColor=none;fillColor=none;align=left;verticalAlign=top;spacingLeft=4;spacingRight=4;overflow=hidden;rotatable=0;points=[[0,0.5],[1,0.5]];portConstraint=eastwest;whiteSpace=wrap;html=1;" vertex="1" parent="sIbLqK6M3uWZsXWhjb3E-36">
          <mxGeometry y="78" width="140" height="26" as="geometry" />
        </mxCell>
        <mxCell id="sIbLqK6M3uWZsXWhjb3E-40" value="CompteBancaire" style="swimlane;fontStyle=0;childLayout=stackLayout;horizontal=1;startSize=26;fillColor=none;horizontalStack=0;resizeParent=1;resizeParentMax=0;resizeLast=0;collapsible=1;marginBottom=0;whiteSpace=wrap;html=1;" vertex="1" parent="1">
          <mxGeometry x="610" y="350" width="140" height="130" as="geometry" />
        </mxCell>
        <mxCell id="sIbLqK6M3uWZsXWhjb3E-41" value="id: int" style="text;strokeColor=#b85450;fillColor=#f8cecc;align=left;verticalAlign=top;spacingLeft=4;spacingRight=4;overflow=hidden;rotatable=0;points=[[0,0.5],[1,0.5]];portConstraint=eastwest;whiteSpace=wrap;html=1;" vertex="1" parent="sIbLqK6M3uWZsXWhjb3E-40">
          <mxGeometry y="26" width="140" height="26" as="geometry" />
        </mxCell>
        <mxCell id="sIbLqK6M3uWZsXWhjb3E-42" value="type: string" style="text;strokeColor=none;fillColor=none;align=left;verticalAlign=top;spacingLeft=4;spacingRight=4;overflow=hidden;rotatable=0;points=[[0,0.5],[1,0.5]];portConstraint=eastwest;whiteSpace=wrap;html=1;" vertex="1" parent="sIbLqK6M3uWZsXWhjb3E-40">
          <mxGeometry y="52" width="140" height="26" as="geometry" />
        </mxCell>
        <mxCell id="sIbLqK6M3uWZsXWhjb3E-43" value="numero: string" style="text;strokeColor=none;fillColor=none;align=left;verticalAlign=top;spacingLeft=4;spacingRight=4;overflow=hidden;rotatable=0;points=[[0,0.5],[1,0.5]];portConstraint=eastwest;whiteSpace=wrap;html=1;" vertex="1" parent="sIbLqK6M3uWZsXWhjb3E-40">
          <mxGeometry y="78" width="140" height="26" as="geometry" />
        </mxCell>
        <mxCell id="sIbLqK6M3uWZsXWhjb3E-44" value="solde: float" style="text;strokeColor=none;fillColor=none;align=left;verticalAlign=top;spacingLeft=4;spacingRight=4;overflow=hidden;rotatable=0;points=[[0,0.5],[1,0.5]];portConstraint=eastwest;whiteSpace=wrap;html=1;" vertex="1" parent="sIbLqK6M3uWZsXWhjb3E-40">
          <mxGeometry y="104" width="140" height="26" as="geometry" />
        </mxCell>
        <mxCell id="sIbLqK6M3uWZsXWhjb3E-45" value="ClientCompteBancaire" style="swimlane;fontStyle=0;childLayout=stackLayout;horizontal=1;startSize=26;fillColor=none;horizontalStack=0;resizeParent=1;resizeParentMax=0;resizeLast=0;collapsible=1;marginBottom=0;whiteSpace=wrap;html=1;" vertex="1" parent="1">
          <mxGeometry x="310" y="440" width="140" height="104" as="geometry" />
        </mxCell>
        <mxCell id="sIbLqK6M3uWZsXWhjb3E-46" value="id: int" style="text;strokeColor=#b85450;fillColor=#f8cecc;align=left;verticalAlign=top;spacingLeft=4;spacingRight=4;overflow=hidden;rotatable=0;points=[[0,0.5],[1,0.5]];portConstraint=eastwest;whiteSpace=wrap;html=1;" vertex="1" parent="sIbLqK6M3uWZsXWhjb3E-45">
          <mxGeometry y="26" width="140" height="26" as="geometry" />
        </mxCell>
        <mxCell id="sIbLqK6M3uWZsXWhjb3E-49" value="idClient: int" style="text;strokeColor=#9673a6;fillColor=#e1d5e7;align=left;verticalAlign=top;spacingLeft=4;spacingRight=4;overflow=hidden;rotatable=0;points=[[0,0.5],[1,0.5]];portConstraint=eastwest;whiteSpace=wrap;html=1;" vertex="1" parent="sIbLqK6M3uWZsXWhjb3E-45">
          <mxGeometry y="52" width="140" height="26" as="geometry" />
        </mxCell>
        <mxCell id="sIbLqK6M3uWZsXWhjb3E-50" value="idCompteBancaire: int" style="text;strokeColor=#9673a6;fillColor=#e1d5e7;align=left;verticalAlign=top;spacingLeft=4;spacingRight=4;overflow=hidden;rotatable=0;points=[[0,0.5],[1,0.5]];portConstraint=eastwest;whiteSpace=wrap;html=1;" vertex="1" parent="sIbLqK6M3uWZsXWhjb3E-45">
          <mxGeometry y="78" width="140" height="26" as="geometry" />
        </mxCell>
        <mxCell id="sIbLqK6M3uWZsXWhjb3E-51" value="" style="endArrow=none;html=1;rounded=0;" edge="1" parent="1" source="sIbLqK6M3uWZsXWhjb3E-36" target="sIbLqK6M3uWZsXWhjb3E-45">
          <mxGeometry width="50" height="50" relative="1" as="geometry">
            <mxPoint x="370" y="430" as="sourcePoint" />
            <mxPoint x="420" y="380" as="targetPoint" />
          </mxGeometry>
        </mxCell>
        <mxCell id="sIbLqK6M3uWZsXWhjb3E-52" value="" style="endArrow=none;html=1;rounded=0;" edge="1" parent="1" source="sIbLqK6M3uWZsXWhjb3E-40" target="sIbLqK6M3uWZsXWhjb3E-45">
          <mxGeometry width="50" height="50" relative="1" as="geometry">
            <mxPoint x="200" y="480" as="sourcePoint" />
            <mxPoint x="350" y="474" as="targetPoint" />
          </mxGeometry>
        </mxCell>
        <mxCell id="sIbLqK6M3uWZsXWhjb3E-53" value="MCD: un compte peut appartenir à un seul client" style="text;html=1;align=center;verticalAlign=middle;whiteSpace=wrap;rounded=0;fillColor=#f8cecc;strokeColor=#b85450;" vertex="1" parent="1">
          <mxGeometry x="220" y="600" width="160" height="80" as="geometry" />
        </mxCell>
        <mxCell id="sIbLqK6M3uWZsXWhjb3E-54" value="Client" style="swimlane;fontStyle=0;childLayout=stackLayout;horizontal=1;startSize=26;fillColor=none;horizontalStack=0;resizeParent=1;resizeParentMax=0;resizeLast=0;collapsible=1;marginBottom=0;whiteSpace=wrap;html=1;" vertex="1" parent="1">
          <mxGeometry x="50" y="736" width="140" height="104" as="geometry" />
        </mxCell>
        <mxCell id="sIbLqK6M3uWZsXWhjb3E-55" value="id: int" style="text;strokeColor=none;fillColor=none;align=left;verticalAlign=top;spacingLeft=4;spacingRight=4;overflow=hidden;rotatable=0;points=[[0,0.5],[1,0.5]];portConstraint=eastwest;whiteSpace=wrap;html=1;" vertex="1" parent="sIbLqK6M3uWZsXWhjb3E-54">
          <mxGeometry y="26" width="140" height="26" as="geometry" />
        </mxCell>
        <mxCell id="sIbLqK6M3uWZsXWhjb3E-56" value="prenom:string" style="text;strokeColor=none;fillColor=none;align=left;verticalAlign=top;spacingLeft=4;spacingRight=4;overflow=hidden;rotatable=0;points=[[0,0.5],[1,0.5]];portConstraint=eastwest;whiteSpace=wrap;html=1;" vertex="1" parent="sIbLqK6M3uWZsXWhjb3E-54">
          <mxGeometry y="52" width="140" height="26" as="geometry" />
        </mxCell>
        <mxCell id="sIbLqK6M3uWZsXWhjb3E-57" value="nom:string" style="text;strokeColor=none;fillColor=none;align=left;verticalAlign=top;spacingLeft=4;spacingRight=4;overflow=hidden;rotatable=0;points=[[0,0.5],[1,0.5]];portConstraint=eastwest;whiteSpace=wrap;html=1;" vertex="1" parent="sIbLqK6M3uWZsXWhjb3E-54">
          <mxGeometry y="78" width="140" height="26" as="geometry" />
        </mxCell>
        <mxCell id="sIbLqK6M3uWZsXWhjb3E-58" value="CompteBancaire" style="swimlane;fontStyle=0;childLayout=stackLayout;horizontal=1;startSize=26;fillColor=none;horizontalStack=0;resizeParent=1;resizeParentMax=0;resizeLast=0;collapsible=1;marginBottom=0;whiteSpace=wrap;html=1;" vertex="1" parent="1">
          <mxGeometry x="600" y="710" width="140" height="130" as="geometry" />
        </mxCell>
        <mxCell id="sIbLqK6M3uWZsXWhjb3E-59" value="id: int" style="text;strokeColor=none;fillColor=none;align=left;verticalAlign=top;spacingLeft=4;spacingRight=4;overflow=hidden;rotatable=0;points=[[0,0.5],[1,0.5]];portConstraint=eastwest;whiteSpace=wrap;html=1;" vertex="1" parent="sIbLqK6M3uWZsXWhjb3E-58">
          <mxGeometry y="26" width="140" height="26" as="geometry" />
        </mxCell>
        <mxCell id="sIbLqK6M3uWZsXWhjb3E-60" value="type: string" style="text;strokeColor=none;fillColor=none;align=left;verticalAlign=top;spacingLeft=4;spacingRight=4;overflow=hidden;rotatable=0;points=[[0,0.5],[1,0.5]];portConstraint=eastwest;whiteSpace=wrap;html=1;" vertex="1" parent="sIbLqK6M3uWZsXWhjb3E-58">
          <mxGeometry y="52" width="140" height="26" as="geometry" />
        </mxCell>
        <mxCell id="sIbLqK6M3uWZsXWhjb3E-61" value="numero: string" style="text;strokeColor=none;fillColor=none;align=left;verticalAlign=top;spacingLeft=4;spacingRight=4;overflow=hidden;rotatable=0;points=[[0,0.5],[1,0.5]];portConstraint=eastwest;whiteSpace=wrap;html=1;" vertex="1" parent="sIbLqK6M3uWZsXWhjb3E-58">
          <mxGeometry y="78" width="140" height="26" as="geometry" />
        </mxCell>
        <mxCell id="sIbLqK6M3uWZsXWhjb3E-62" value="solde: float" style="text;strokeColor=none;fillColor=none;align=left;verticalAlign=top;spacingLeft=4;spacingRight=4;overflow=hidden;rotatable=0;points=[[0,0.5],[1,0.5]];portConstraint=eastwest;whiteSpace=wrap;html=1;" vertex="1" parent="sIbLqK6M3uWZsXWhjb3E-58">
          <mxGeometry y="104" width="140" height="26" as="geometry" />
        </mxCell>
        <mxCell id="sIbLqK6M3uWZsXWhjb3E-63" value="possede&lt;div&gt;&lt;br&gt;&lt;/div&gt;&lt;div&gt;&lt;br&gt;&lt;/div&gt;" style="shape=lineEllipse;perimeter=ellipsePerimeter;whiteSpace=wrap;html=1;backgroundOutline=1;" vertex="1" parent="1">
          <mxGeometry x="330" y="730" width="150" height="78" as="geometry" />
        </mxCell>
        <mxCell id="sIbLqK6M3uWZsXWhjb3E-64" value="" style="endArrow=none;html=1;rounded=0;edgeStyle=orthogonalEdgeStyle;curved=1;" edge="1" parent="1" source="sIbLqK6M3uWZsXWhjb3E-63" target="sIbLqK6M3uWZsXWhjb3E-58">
          <mxGeometry width="50" height="50" relative="1" as="geometry">
            <mxPoint x="410" y="896" as="sourcePoint" />
            <mxPoint x="460" y="846" as="targetPoint" />
          </mxGeometry>
        </mxCell>
        <mxCell id="sIbLqK6M3uWZsXWhjb3E-65" value="1,1" style="edgeLabel;html=1;align=center;verticalAlign=middle;resizable=0;points=[];" vertex="1" connectable="0" parent="sIbLqK6M3uWZsXWhjb3E-64">
          <mxGeometry x="0.7995" y="-2" relative="1" as="geometry">
            <mxPoint as="offset" />
          </mxGeometry>
        </mxCell>
        <mxCell id="sIbLqK6M3uWZsXWhjb3E-66" value="" style="endArrow=none;html=1;rounded=0;endFill=0;edgeStyle=orthogonalEdgeStyle;curved=1;" edge="1" parent="1" source="sIbLqK6M3uWZsXWhjb3E-54" target="sIbLqK6M3uWZsXWhjb3E-63">
          <mxGeometry width="50" height="50" relative="1" as="geometry">
            <mxPoint x="350" y="950.0344827586207" as="sourcePoint" />
            <mxPoint x="465" y="836" as="targetPoint" />
            <Array as="points">
              <mxPoint x="260" y="786" />
            </Array>
          </mxGeometry>
        </mxCell>
        <mxCell id="sIbLqK6M3uWZsXWhjb3E-67" value="1,n" style="edgeLabel;html=1;align=center;verticalAlign=middle;resizable=0;points=[];" vertex="1" connectable="0" parent="sIbLqK6M3uWZsXWhjb3E-66">
          <mxGeometry x="-0.2214" y="4" relative="1" as="geometry">
            <mxPoint as="offset" />
          </mxGeometry>
        </mxCell>
        <mxCell id="sIbLqK6M3uWZsXWhjb3E-68" value="MLD" style="text;html=1;align=center;verticalAlign=middle;whiteSpace=wrap;rounded=0;fillColor=#f8cecc;strokeColor=#b85450;" vertex="1" parent="1">
          <mxGeometry x="260" y="910" width="100" height="50" as="geometry" />
        </mxCell>
        <mxCell id="sIbLqK6M3uWZsXWhjb3E-69" value="Client" style="swimlane;fontStyle=0;childLayout=stackLayout;horizontal=1;startSize=26;fillColor=none;horizontalStack=0;resizeParent=1;resizeParentMax=0;resizeLast=0;collapsible=1;marginBottom=0;whiteSpace=wrap;html=1;" vertex="1" parent="1">
          <mxGeometry x="50" y="996" width="140" height="104" as="geometry" />
        </mxCell>
        <mxCell id="sIbLqK6M3uWZsXWhjb3E-70" value="id: int" style="text;strokeColor=#b85450;fillColor=#f8cecc;align=left;verticalAlign=top;spacingLeft=4;spacingRight=4;overflow=hidden;rotatable=0;points=[[0,0.5],[1,0.5]];portConstraint=eastwest;whiteSpace=wrap;html=1;" vertex="1" parent="sIbLqK6M3uWZsXWhjb3E-69">
          <mxGeometry y="26" width="140" height="26" as="geometry" />
        </mxCell>
        <mxCell id="sIbLqK6M3uWZsXWhjb3E-71" value="prenom:string" style="text;strokeColor=none;fillColor=none;align=left;verticalAlign=top;spacingLeft=4;spacingRight=4;overflow=hidden;rotatable=0;points=[[0,0.5],[1,0.5]];portConstraint=eastwest;whiteSpace=wrap;html=1;" vertex="1" parent="sIbLqK6M3uWZsXWhjb3E-69">
          <mxGeometry y="52" width="140" height="26" as="geometry" />
        </mxCell>
        <mxCell id="sIbLqK6M3uWZsXWhjb3E-72" value="nom:string" style="text;strokeColor=none;fillColor=none;align=left;verticalAlign=top;spacingLeft=4;spacingRight=4;overflow=hidden;rotatable=0;points=[[0,0.5],[1,0.5]];portConstraint=eastwest;whiteSpace=wrap;html=1;" vertex="1" parent="sIbLqK6M3uWZsXWhjb3E-69">
          <mxGeometry y="78" width="140" height="26" as="geometry" />
        </mxCell>
        <mxCell id="sIbLqK6M3uWZsXWhjb3E-73" value="CompteBancaire" style="swimlane;fontStyle=0;childLayout=stackLayout;horizontal=1;startSize=26;fillColor=none;horizontalStack=0;resizeParent=1;resizeParentMax=0;resizeLast=0;collapsible=1;marginBottom=0;whiteSpace=wrap;html=1;" vertex="1" parent="1">
          <mxGeometry x="540" y="980" width="140" height="156" as="geometry" />
        </mxCell>
        <mxCell id="sIbLqK6M3uWZsXWhjb3E-74" value="id: int" style="text;strokeColor=#b85450;fillColor=#f8cecc;align=left;verticalAlign=top;spacingLeft=4;spacingRight=4;overflow=hidden;rotatable=0;points=[[0,0.5],[1,0.5]];portConstraint=eastwest;whiteSpace=wrap;html=1;" vertex="1" parent="sIbLqK6M3uWZsXWhjb3E-73">
          <mxGeometry y="26" width="140" height="26" as="geometry" />
        </mxCell>
        <mxCell id="sIbLqK6M3uWZsXWhjb3E-75" value="type: string" style="text;strokeColor=none;fillColor=none;align=left;verticalAlign=top;spacingLeft=4;spacingRight=4;overflow=hidden;rotatable=0;points=[[0,0.5],[1,0.5]];portConstraint=eastwest;whiteSpace=wrap;html=1;" vertex="1" parent="sIbLqK6M3uWZsXWhjb3E-73">
          <mxGeometry y="52" width="140" height="26" as="geometry" />
        </mxCell>
        <mxCell id="sIbLqK6M3uWZsXWhjb3E-76" value="numero: string" style="text;strokeColor=none;fillColor=none;align=left;verticalAlign=top;spacingLeft=4;spacingRight=4;overflow=hidden;rotatable=0;points=[[0,0.5],[1,0.5]];portConstraint=eastwest;whiteSpace=wrap;html=1;" vertex="1" parent="sIbLqK6M3uWZsXWhjb3E-73">
          <mxGeometry y="78" width="140" height="26" as="geometry" />
        </mxCell>
        <mxCell id="sIbLqK6M3uWZsXWhjb3E-77" value="solde: float" style="text;strokeColor=none;fillColor=none;align=left;verticalAlign=top;spacingLeft=4;spacingRight=4;overflow=hidden;rotatable=0;points=[[0,0.5],[1,0.5]];portConstraint=eastwest;whiteSpace=wrap;html=1;" vertex="1" parent="sIbLqK6M3uWZsXWhjb3E-73">
          <mxGeometry y="104" width="140" height="26" as="geometry" />
        </mxCell>
        <mxCell id="sIbLqK6M3uWZsXWhjb3E-79" value="idClient:int" style="text;strokeColor=#9673a6;fillColor=#e1d5e7;align=left;verticalAlign=top;spacingLeft=4;spacingRight=4;overflow=hidden;rotatable=0;points=[[0,0.5],[1,0.5]];portConstraint=eastwest;whiteSpace=wrap;html=1;" vertex="1" parent="sIbLqK6M3uWZsXWhjb3E-73">
          <mxGeometry y="130" width="140" height="26" as="geometry" />
        </mxCell>
        <mxCell id="sIbLqK6M3uWZsXWhjb3E-78" value="" style="endArrow=none;html=1;rounded=0;" edge="1" parent="1" source="sIbLqK6M3uWZsXWhjb3E-69" target="sIbLqK6M3uWZsXWhjb3E-73">
          <mxGeometry width="50" height="50" relative="1" as="geometry">
            <mxPoint x="370" y="970" as="sourcePoint" />
            <mxPoint x="420" y="920" as="targetPoint" />
          </mxGeometry>
        </mxCell>
      </root>
    </mxGraphModel>
  </diagram>
</mxfile>
